<?xml version="1.0" encoding="UTF-8" standalone="no"?>
<!DOCTYPE svg PUBLIC "-//W3C//DTD SVG 1.1//EN"
 "http://www.w3.org/Graphics/SVG/1.1/DTD/svg11.dtd">
<!-- Generated by graphviz version 2.47.0 (20210316.0004)
 -->
<!-- Title: dependencies Pages: 1 -->
<svg width="1037pt" height="211pt"
 viewBox="0.00 0.00 1037.00 211.00" xmlns="http://www.w3.org/2000/svg" xmlns:xlink="http://www.w3.org/1999/xlink">
<g id="graph0" class="graph" transform="scale(1 1) rotate(0) translate(4 207)">
<title>dependencies</title>
<polygon fill="white" stroke="transparent" points="-4,4 -4,-207 1033,-207 1033,4 -4,4"/>
<text text-anchor="start" x="493.51" y="-42.4" font-family="Times-12" font-weight="bold" font-size="14.00">Legend</text>
<polygon fill="#ffffb3" stroke="transparent" points="280.5,-10 280.5,-30 300.5,-30 300.5,-10 280.5,-10"/>
<text text-anchor="start" x="304.13" y="-15.4" font-family="Times-12" font-size="14.00"> &#160;Declarations</text>
<polygon fill="#8dd3c7" stroke="transparent" points="393.5,-10 393.5,-30 413.5,-30 413.5,-10 393.5,-10"/>
<text text-anchor="start" x="417.23" y="-15.4" font-family="Times-12" font-size="14.00"> &#160;Module</text>
<polygon fill="#80b1d3" stroke="transparent" points="479.5,-10 479.5,-30 499.5,-30 499.5,-10 479.5,-10"/>
<text text-anchor="start" x="503.28" y="-15.4" font-family="Times-12" font-size="14.00"> &#160;Bootstrap</text>
<polygon fill="#fdb462" stroke="transparent" points="576.5,-10 576.5,-30 596.5,-30 596.5,-10 576.5,-10"/>
<text text-anchor="start" x="600.17" y="-15.4" font-family="Times-12" font-size="14.00"> &#160;Providers</text>
<polygon fill="#fb8072" stroke="transparent" points="672.5,-10 672.5,-30 692.5,-30 692.5,-10 672.5,-10"/>
<text text-anchor="start" x="696.23" y="-15.4" font-family="Times-12" font-size="14.00"> &#160;Exports</text>
<g id="clust1" class="cluster">
<title>cluster_AppModule</title>
<polygon fill="none" stroke="black" stroke-dasharray="1,5" points="8,-70 8,-195 1021,-195 1021,-70 8,-70"/>
</g>
<g id="clust3" class="cluster">
<title>cluster_AppModule_imports</title>
<polygon fill="none" stroke="black" points="154,-78 154,-130 1013,-130 1013,-78 154,-78"/>
</g>
<g id="clust6" class="cluster">
<title>cluster_AppModule_providers</title>
<polygon fill="none" stroke="black" points="16,-78 16,-130 146,-130 146,-78 16,-78"/>
</g>
<!-- AppointmentsModule -->
<g id="node1" class="node">
<title>AppointmentsModule</title>
<polygon fill="#8dd3c7" stroke="black" points="1005.38,-122 1002.38,-126 981.38,-126 978.38,-122 866.62,-122 866.62,-86 1005.38,-86 1005.38,-122"/>
<text text-anchor="middle" x="936" y="-99.8" font-family="Times,serif" font-size="14.00">AppointmentsModule</text>
</g>
<!-- AppModule -->
<g id="node7" class="node">
<title>AppModule</title>
<polygon fill="#8dd3c7" stroke="black" points="562.66,-187 559.66,-191 538.66,-191 535.66,-187 479.34,-187 479.34,-151 562.66,-151 562.66,-187"/>
<text text-anchor="middle" x="521" y="-164.8" font-family="Times,serif" font-size="14.00">AppModule</text>
</g>
<!-- AppointmentsModule&#45;&gt;AppModule -->
<g id="edge1" class="edge">
<title>AppointmentsModule&#45;&gt;AppModule</title>
<path fill="none" stroke="black" d="M936,-122.29C936,-144.21 936,-178 936,-178 936,-178 572.69,-178 572.69,-178"/>
<polygon fill="black" stroke="black" points="572.69,-174.5 562.69,-178 572.69,-181.5 572.69,-174.5"/>
</g>
<!-- ArticlesClientsModule -->
<g id="node2" class="node">
<title>ArticlesClientsModule</title>
<polygon fill="#8dd3c7" stroke="black" points="848.53,-122 845.53,-126 824.53,-126 821.53,-122 705.47,-122 705.47,-86 848.53,-86 848.53,-122"/>
<text text-anchor="middle" x="777" y="-99.8" font-family="Times,serif" font-size="14.00">ArticlesClientsModule</text>
</g>
<!-- ArticlesClientsModule&#45;&gt;AppModule -->
<g id="edge2" class="edge">
<title>ArticlesClientsModule&#45;&gt;AppModule</title>
<path fill="none" stroke="black" d="M777,-122.11C777,-141.34 777,-169 777,-169 777,-169 572.7,-169 572.7,-169"/>
<polygon fill="black" stroke="black" points="572.7,-165.5 562.7,-169 572.7,-172.5 572.7,-165.5"/>
</g>
<!-- ArticlesModule -->
<g id="node3" class="node">
<title>ArticlesModule</title>
<polygon fill="#8dd3c7" stroke="black" points="686.86,-122 683.86,-126 662.86,-126 659.86,-122 583.14,-122 583.14,-86 686.86,-86 686.86,-122"/>
<text text-anchor="middle" x="635" y="-99.8" font-family="Times,serif" font-size="14.00">ArticlesModule</text>
</g>
<!-- ArticlesModule&#45;&gt;AppModule -->
<g id="edge3" class="edge">
<title>ArticlesModule&#45;&gt;AppModule</title>
<path fill="none" stroke="black" d="M635,-122.03C635,-138.4 635,-160 635,-160 635,-160 572.8,-160 572.8,-160"/>
<polygon fill="black" stroke="black" points="572.8,-156.5 562.8,-160 572.8,-163.5 572.8,-156.5"/>
</g>
<!-- AuthModule -->
<g id="node4" class="node">
<title>AuthModule</title>
<polygon fill="#8dd3c7" stroke="black" points="564.55,-122 561.55,-126 540.55,-126 537.55,-122 477.45,-122 477.45,-86 564.55,-86 564.55,-122"/>
<text text-anchor="middle" x="521" y="-99.8" font-family="Times,serif" font-size="14.00">AuthModule</text>
</g>
<!-- AuthModule&#45;&gt;AppModule -->
<g id="edge4" class="edge">
<title>AuthModule&#45;&gt;AppModule</title>
<path fill="none" stroke="black" d="M521,-122.11C521,-122.11 521,-140.99 521,-140.99"/>
<polygon fill="black" stroke="black" points="517.5,-140.99 521,-150.99 524.5,-140.99 517.5,-140.99"/>
</g>
<!-- ClientsModule -->
<g id="node5" class="node">
<title>ClientsModule</title>
<polygon fill="#8dd3c7" stroke="black" points="459.72,-122 456.72,-126 435.72,-126 432.72,-122 360.28,-122 360.28,-86 459.72,-86 459.72,-122"/>
<text text-anchor="middle" x="410" y="-99.8" font-family="Times,serif" font-size="14.00">ClientsModule</text>
</g>
<!-- ClientsModule&#45;&gt;AppModule -->
<g id="edge5" class="edge">
<title>ClientsModule&#45;&gt;AppModule</title>
<path fill="none" stroke="black" d="M410,-122.03C410,-138.4 410,-160 410,-160 410,-160 469.04,-160 469.04,-160"/>
<polygon fill="black" stroke="black" points="469.04,-163.5 479.04,-160 469.04,-156.5 469.04,-163.5"/>
</g>
<!-- HistoriqueConnexionModule -->
<g id="node6" class="node">
<title>HistoriqueConnexionModule</title>
<polygon fill="#8dd3c7" stroke="black" points="342.09,-122 339.09,-126 318.09,-126 315.09,-122 161.91,-122 161.91,-86 342.09,-86 342.09,-122"/>
<text text-anchor="middle" x="252" y="-99.8" font-family="Times,serif" font-size="14.00">HistoriqueConnexionModule</text>
</g>
<!-- HistoriqueConnexionModule&#45;&gt;AppModule -->
<g id="edge6" class="edge">
<title>HistoriqueConnexionModule&#45;&gt;AppModule</title>
<path fill="none" stroke="black" d="M252,-122.11C252,-141.34 252,-169 252,-169 252,-169 469.26,-169 469.26,-169"/>
<polygon fill="black" stroke="black" points="469.26,-172.5 479.26,-169 469.26,-165.5 469.26,-172.5"/>
</g>
<!-- AppService -->
<g id="node8" class="node">
<title>AppService</title>
<ellipse fill="#fdb462" stroke="black" cx="81" cy="-104" rx="56.74" ry="18"/>
<text text-anchor="middle" x="81" y="-99.8" font-family="Times,serif" font-size="14.00">AppService</text>
</g>
<!-- AppService&#45;&gt;AppModule -->
<g id="edge7" class="edge">
<title>AppService&#45;&gt;AppModule</title>
<path fill="none" stroke="black" d="M81,-122.29C81,-144.21 81,-178 81,-178 81,-178 469.21,-178 469.21,-178"/>
<polygon fill="black" stroke="black" points="469.21,-181.5 479.21,-178 469.21,-174.5 469.21,-181.5"/>
</g>
</g>
</svg>
