<?xml version="1.0" encoding="UTF-8" standalone="no"?>
<!DOCTYPE svg PUBLIC "-//W3C//DTD SVG 1.1//EN"
 "http://www.w3.org/Graphics/SVG/1.1/DTD/svg11.dtd">
<!-- Generated by graphviz version 2.47.0 (20210316.0004)
 -->
<!-- Title: dependencies Pages: 1 -->
<svg width="2951pt" height="298pt"
 viewBox="0.00 0.00 2951.00 298.00" xmlns="http://www.w3.org/2000/svg" xmlns:xlink="http://www.w3.org/1999/xlink">
<g id="graph0" class="graph" transform="scale(1 1) rotate(0) translate(4 294)">
<title>dependencies</title>
<polygon fill="white" stroke="transparent" points="-4,4 -4,-294 2947,-294 2947,4 -4,4"/>
<text text-anchor="start" x="1450.51" y="-42.4" font-family="Times-12" font-weight="bold" font-size="14.00">Legend</text>
<polygon fill="#ffffb3" stroke="transparent" points="1237.5,-10 1237.5,-30 1257.5,-30 1257.5,-10 1237.5,-10"/>
<text text-anchor="start" x="1261.13" y="-15.4" font-family="Times-12" font-size="14.00"> &#160;Declarations</text>
<polygon fill="#8dd3c7" stroke="transparent" points="1350.5,-10 1350.5,-30 1370.5,-30 1370.5,-10 1350.5,-10"/>
<text text-anchor="start" x="1374.23" y="-15.4" font-family="Times-12" font-size="14.00"> &#160;Module</text>
<polygon fill="#80b1d3" stroke="transparent" points="1436.5,-10 1436.5,-30 1456.5,-30 1456.5,-10 1436.5,-10"/>
<text text-anchor="start" x="1460.28" y="-15.4" font-family="Times-12" font-size="14.00"> &#160;Bootstrap</text>
<polygon fill="#fdb462" stroke="transparent" points="1533.5,-10 1533.5,-30 1553.5,-30 1553.5,-10 1533.5,-10"/>
<text text-anchor="start" x="1557.17" y="-15.4" font-family="Times-12" font-size="14.00"> &#160;Providers</text>
<polygon fill="#fb8072" stroke="transparent" points="1629.5,-10 1629.5,-30 1649.5,-30 1649.5,-10 1629.5,-10"/>
<text text-anchor="start" x="1653.23" y="-15.4" font-family="Times-12" font-size="14.00"> &#160;Exports</text>
<g id="clust1" class="cluster">
<title>cluster_AppModule</title>
<polygon fill="none" stroke="black" stroke-dasharray="1,5" points="17,-146 17,-274 1031,-274 1031,-146 17,-146"/>
</g>
<g id="clust3" class="cluster">
<title>cluster_AppModule_imports</title>
<polygon fill="none" stroke="black" points="163,-154 163,-206 1023,-206 1023,-154 163,-154"/>
</g>
<g id="clust6" class="cluster">
<title>cluster_AppModule_providers</title>
<polygon fill="none" stroke="black" points="25,-154 25,-206 155,-206 155,-154 25,-154"/>
</g>
<g id="clust7" class="cluster">
<title>cluster_AppointmentsModule</title>
<polygon fill="none" stroke="black" stroke-dasharray="1,5" points="1039,-214 1039,-282 1425,-282 1425,-214 1039,-214"/>
</g>
<g id="clust10" class="cluster">
<title>cluster_AppointmentsModule_exports</title>
<polygon fill="none" stroke="black" points="1261,-222 1261,-274 1417,-274 1417,-222 1261,-222"/>
</g>
<g id="clust12" class="cluster">
<title>cluster_AppointmentsModule_providers</title>
<polygon fill="none" stroke="black" points="1047,-222 1047,-274 1253,-274 1253,-222 1047,-222"/>
</g>
<g id="clust13" class="cluster">
<title>cluster_ArticlesClientsModule</title>
<polygon fill="none" stroke="black" stroke-dasharray="1,5" points="1433,-214 1433,-282 1831,-282 1831,-214 1433,-214"/>
</g>
<g id="clust16" class="cluster">
<title>cluster_ArticlesClientsModule_exports</title>
<polygon fill="none" stroke="black" points="1661,-222 1661,-274 1823,-274 1823,-222 1661,-222"/>
</g>
<g id="clust18" class="cluster">
<title>cluster_ArticlesClientsModule_providers</title>
<polygon fill="none" stroke="black" points="1441,-222 1441,-274 1653,-274 1653,-222 1441,-222"/>
</g>
<g id="clust19" class="cluster">
<title>cluster_ArticlesModule</title>
<polygon fill="none" stroke="black" stroke-dasharray="1,5" points="1839,-214 1839,-282 2143,-282 2143,-214 1839,-214"/>
</g>
<g id="clust22" class="cluster">
<title>cluster_ArticlesModule_exports</title>
<polygon fill="none" stroke="black" points="2013,-222 2013,-274 2135,-274 2135,-222 2013,-222"/>
</g>
<g id="clust24" class="cluster">
<title>cluster_ArticlesModule_providers</title>
<polygon fill="none" stroke="black" points="1847,-222 1847,-274 2005,-274 2005,-222 1847,-222"/>
</g>
<g id="clust25" class="cluster">
<title>cluster_AuthModule</title>
<polygon fill="none" stroke="black" stroke-dasharray="1,5" points="8,-70 8,-138 404,-138 404,-70 8,-70"/>
</g>
<g id="clust28" class="cluster">
<title>cluster_AuthModule_exports</title>
<polygon fill="none" stroke="black" points="290,-78 290,-130 396,-130 396,-78 290,-78"/>
</g>
<g id="clust30" class="cluster">
<title>cluster_AuthModule_providers</title>
<polygon fill="none" stroke="black" points="16,-78 16,-130 282,-130 282,-78 16,-78"/>
</g>
<g id="clust31" class="cluster">
<title>cluster_ClientsModule</title>
<polygon fill="none" stroke="black" stroke-dasharray="1,5" points="2151,-214 2151,-282 2443,-282 2443,-214 2151,-214"/>
</g>
<g id="clust34" class="cluster">
<title>cluster_ClientsModule_exports</title>
<polygon fill="none" stroke="black" points="2317,-222 2317,-274 2435,-274 2435,-222 2317,-222"/>
</g>
<g id="clust36" class="cluster">
<title>cluster_ClientsModule_providers</title>
<polygon fill="none" stroke="black" points="2159,-222 2159,-274 2309,-274 2309,-222 2159,-222"/>
</g>
<g id="clust37" class="cluster">
<title>cluster_HistoriqueConnexionModule</title>
<polygon fill="none" stroke="black" stroke-dasharray="1,5" points="2451,-214 2451,-282 2935,-282 2935,-214 2451,-214"/>
</g>
<g id="clust40" class="cluster">
<title>cluster_HistoriqueConnexionModule_exports</title>
<polygon fill="none" stroke="black" points="2729,-222 2729,-274 2927,-274 2927,-222 2729,-222"/>
</g>
<g id="clust42" class="cluster">
<title>cluster_HistoriqueConnexionModule_providers</title>
<polygon fill="none" stroke="black" points="2459,-222 2459,-274 2721,-274 2721,-222 2459,-222"/>
</g>
<!-- AppointmentsModule -->
<g id="node1" class="node">
<title>AppointmentsModule</title>
<polygon fill="#8dd3c7" stroke="black" points="415.38,-198 412.38,-202 391.38,-202 388.38,-198 276.62,-198 276.62,-162 415.38,-162 415.38,-198"/>
<text text-anchor="middle" x="346" y="-175.8" font-family="Times,serif" font-size="14.00">AppointmentsModule</text>
</g>
<!-- AppModule -->
<g id="node7" class="node">
<title>AppModule</title>
<polygon fill="#8dd3c7" stroke="black" points="546.66,-266 543.66,-270 522.66,-270 519.66,-266 463.34,-266 463.34,-230 546.66,-230 546.66,-266"/>
<text text-anchor="middle" x="505" y="-243.8" font-family="Times,serif" font-size="14.00">AppModule</text>
</g>
<!-- AppointmentsModule&#45;&gt;AppModule -->
<g id="edge1" class="edge">
<title>AppointmentsModule&#45;&gt;AppModule</title>
<path fill="none" stroke="black" d="M380.72,-198.02C380.72,-215.37 380.72,-239 380.72,-239 380.72,-239 453.27,-239 453.27,-239"/>
<polygon fill="black" stroke="black" points="453.27,-242.5 463.27,-239 453.27,-235.5 453.27,-242.5"/>
</g>
<!-- AppointmentsService  -->
<g id="node9" class="node">
<title>AppointmentsService </title>
<polygon fill="#fb8072" stroke="black" points="1409.31,-266 1268.69,-266 1268.69,-230 1409.31,-230 1409.31,-266"/>
<text text-anchor="middle" x="1339" y="-243.8" font-family="Times,serif" font-size="14.00">AppointmentsService </text>
</g>
<!-- AppointmentsModule&#45;&gt;AppointmentsService  -->
<g id="edge8" class="edge">
<title>AppointmentsModule&#45;&gt;AppointmentsService </title>
<path fill="none" stroke="black" stroke-dasharray="5,2" d="M311.28,-198.49C311.28,-210.14 311.28,-223 311.28,-223 311.28,-223 1339,-223 1339,-223 1339,-223 1339,-223.68 1339,-223.68"/>
<polygon fill="black" stroke="black" points="1335.5,-219.83 1339,-229.83 1342.5,-219.83 1335.5,-219.83"/>
</g>
<!-- ArticlesClientsModule -->
<g id="node2" class="node">
<title>ArticlesClientsModule</title>
<polygon fill="#8dd3c7" stroke="black" points="576.53,-198 573.53,-202 552.53,-202 549.53,-198 433.47,-198 433.47,-162 576.53,-162 576.53,-198"/>
<text text-anchor="middle" x="505" y="-175.8" font-family="Times,serif" font-size="14.00">ArticlesClientsModule</text>
</g>
<!-- ArticlesClientsModule&#45;&gt;AppModule -->
<g id="edge2" class="edge">
<title>ArticlesClientsModule&#45;&gt;AppModule</title>
<path fill="none" stroke="black" d="M505,-198.22C505,-198.22 505,-219.73 505,-219.73"/>
<polygon fill="black" stroke="black" points="501.5,-219.73 505,-229.73 508.5,-219.73 501.5,-219.73"/>
</g>
<!-- ArticlesClientsService  -->
<g id="node11" class="node">
<title>ArticlesClientsService </title>
<polygon fill="#fb8072" stroke="black" points="1814.96,-266 1669.04,-266 1669.04,-230 1814.96,-230 1814.96,-266"/>
<text text-anchor="middle" x="1742" y="-243.8" font-family="Times,serif" font-size="14.00">ArticlesClientsService </text>
</g>
<!-- ArticlesClientsModule&#45;&gt;ArticlesClientsService  -->
<g id="edge10" class="edge">
<title>ArticlesClientsModule&#45;&gt;ArticlesClientsService </title>
<path fill="none" stroke="black" stroke-dasharray="5,2" d="M556.81,-198.42C556.81,-207.28 556.81,-216 556.81,-216 556.81,-216 1742,-216 1742,-216 1742,-216 1742,-219.76 1742,-219.76"/>
<polygon fill="black" stroke="black" points="1738.5,-219.76 1742,-229.76 1745.5,-219.76 1738.5,-219.76"/>
</g>
<!-- ArticlesModule -->
<g id="node3" class="node">
<title>ArticlesModule</title>
<polygon fill="#8dd3c7" stroke="black" points="698.86,-198 695.86,-202 674.86,-202 671.86,-198 595.14,-198 595.14,-162 698.86,-162 698.86,-198"/>
<text text-anchor="middle" x="647" y="-175.8" font-family="Times,serif" font-size="14.00">ArticlesModule</text>
</g>
<!-- ArticlesModule&#45;&gt;AppModule -->
<g id="edge3" class="edge">
<title>ArticlesModule&#45;&gt;AppModule</title>
<path fill="none" stroke="black" d="M672.97,-198.02C672.97,-215.37 672.97,-239 672.97,-239 672.97,-239 556.95,-239 556.95,-239"/>
<polygon fill="black" stroke="black" points="556.95,-235.5 546.95,-239 556.95,-242.5 556.95,-235.5"/>
</g>
<!-- ArticlesService  -->
<g id="node13" class="node">
<title>ArticlesService </title>
<polygon fill="#fb8072" stroke="black" points="2126.79,-266 2021.21,-266 2021.21,-230 2126.79,-230 2126.79,-266"/>
<text text-anchor="middle" x="2074" y="-243.8" font-family="Times,serif" font-size="14.00">ArticlesService </text>
</g>
<!-- ArticlesModule&#45;&gt;ArticlesService  -->
<g id="edge12" class="edge">
<title>ArticlesModule&#45;&gt;ArticlesService </title>
<path fill="none" stroke="black" stroke-dasharray="5,2" d="M621.03,-198.2C621.03,-204.03 621.03,-209 621.03,-209 621.03,-209 2074,-209 2074,-209 2074,-209 2074,-219.87 2074,-219.87"/>
<polygon fill="black" stroke="black" points="2070.5,-219.87 2074,-229.87 2077.5,-219.87 2070.5,-219.87"/>
</g>
<!-- AuthModule -->
<g id="node4" class="node">
<title>AuthModule</title>
<polygon fill="#8dd3c7" stroke="black" points="258.55,-198 255.55,-202 234.55,-202 231.55,-198 171.45,-198 171.45,-162 258.55,-162 258.55,-198"/>
<text text-anchor="middle" x="215" y="-175.8" font-family="Times,serif" font-size="14.00">AuthModule</text>
</g>
<!-- AuthModule&#45;&gt;AppModule -->
<g id="edge4" class="edge">
<title>AuthModule&#45;&gt;AppModule</title>
<path fill="none" stroke="black" d="M215,-198.22C215,-218.37 215,-248 215,-248 215,-248 453.14,-248 453.14,-248"/>
<polygon fill="black" stroke="black" points="453.14,-251.5 463.14,-248 453.14,-244.5 453.14,-251.5"/>
</g>
<!-- AuthService  -->
<g id="node15" class="node">
<title>AuthService </title>
<polygon fill="#fb8072" stroke="black" points="387.98,-122 298.02,-122 298.02,-86 387.98,-86 387.98,-122"/>
<text text-anchor="middle" x="343" y="-99.8" font-family="Times,serif" font-size="14.00">AuthService </text>
</g>
<!-- AuthModule&#45;&gt;AuthService  -->
<g id="edge14" class="edge">
<title>AuthModule&#45;&gt;AuthService </title>
<path fill="none" stroke="black" stroke-dasharray="5,2" d="M229.59,-161.89C229.59,-152.1 229.59,-142 229.59,-142 229.59,-142 343,-142 343,-142 343,-142 343,-132.11 343,-132.11"/>
<polygon fill="black" stroke="black" points="346.5,-132.11 343,-122.11 339.5,-132.11 346.5,-132.11"/>
</g>
<!-- ClientsModule -->
<g id="node5" class="node">
<title>ClientsModule</title>
<polygon fill="#8dd3c7" stroke="black" points="816.72,-198 813.72,-202 792.72,-202 789.72,-198 717.28,-198 717.28,-162 816.72,-162 816.72,-198"/>
<text text-anchor="middle" x="767" y="-175.8" font-family="Times,serif" font-size="14.00">ClientsModule</text>
</g>
<!-- ClientsModule&#45;&gt;AppModule -->
<g id="edge5" class="edge">
<title>ClientsModule&#45;&gt;AppModule</title>
<path fill="none" stroke="black" d="M791.8,-198.22C791.8,-218.37 791.8,-248 791.8,-248 791.8,-248 556.7,-248 556.7,-248"/>
<polygon fill="black" stroke="black" points="556.7,-244.5 546.7,-248 556.7,-251.5 556.7,-244.5"/>
</g>
<!-- ClientsService  -->
<g id="node18" class="node">
<title>ClientsService </title>
<polygon fill="#fb8072" stroke="black" points="2426.65,-266 2325.35,-266 2325.35,-230 2426.65,-230 2426.65,-266"/>
<text text-anchor="middle" x="2376" y="-243.8" font-family="Times,serif" font-size="14.00">ClientsService </text>
</g>
<!-- ClientsModule&#45;&gt;ClientsService  -->
<g id="edge17" class="edge">
<title>ClientsModule&#45;&gt;ClientsService </title>
<path fill="none" stroke="black" stroke-dasharray="5,2" d="M742.2,-198.17C742.2,-200.45 742.2,-202 742.2,-202 742.2,-202 2376,-202 2376,-202 2376,-202 2376,-219.82 2376,-219.82"/>
<polygon fill="black" stroke="black" points="2372.5,-219.82 2376,-229.82 2379.5,-219.82 2372.5,-219.82"/>
</g>
<!-- HistoriqueConnexionModule -->
<g id="node6" class="node">
<title>HistoriqueConnexionModule</title>
<polygon fill="#8dd3c7" stroke="black" points="1015.09,-198 1012.09,-202 991.09,-202 988.09,-198 834.91,-198 834.91,-162 1015.09,-162 1015.09,-198"/>
<text text-anchor="middle" x="925" y="-175.8" font-family="Times,serif" font-size="14.00">HistoriqueConnexionModule</text>
</g>
<!-- HistoriqueConnexionModule&#45;&gt;AppModule -->
<g id="edge6" class="edge">
<title>HistoriqueConnexionModule&#45;&gt;AppModule</title>
<path fill="none" stroke="black" d="M925,-198.25C925,-221.02 925,-257 925,-257 925,-257 556.81,-257 556.81,-257"/>
<polygon fill="black" stroke="black" points="556.81,-253.5 546.81,-257 556.81,-260.5 556.81,-253.5"/>
</g>
<!-- HistoriqueConnexionService  -->
<g id="node20" class="node">
<title>HistoriqueConnexionService </title>
<polygon fill="#fb8072" stroke="black" points="2919.02,-266 2736.98,-266 2736.98,-230 2919.02,-230 2919.02,-266"/>
<text text-anchor="middle" x="2828" y="-243.8" font-family="Times,serif" font-size="14.00">HistoriqueConnexionService </text>
</g>
<!-- HistoriqueConnexionModule&#45;&gt;HistoriqueConnexionService  -->
<g id="edge19" class="edge">
<title>HistoriqueConnexionModule&#45;&gt;HistoriqueConnexionService </title>
<path fill="none" stroke="black" stroke-dasharray="5,2" d="M1015.19,-174C1392.89,-174 2828,-174 2828,-174 2828,-174 2828,-219.71 2828,-219.71"/>
<polygon fill="black" stroke="black" points="2824.5,-219.71 2828,-229.71 2831.5,-219.71 2824.5,-219.71"/>
</g>
<!-- AppService -->
<g id="node8" class="node">
<title>AppService</title>
<ellipse fill="#fdb462" stroke="black" cx="90" cy="-180" rx="56.74" ry="18"/>
<text text-anchor="middle" x="90" y="-175.8" font-family="Times,serif" font-size="14.00">AppService</text>
</g>
<!-- AppService&#45;&gt;AppModule -->
<g id="edge7" class="edge">
<title>AppService&#45;&gt;AppModule</title>
<path fill="none" stroke="black" d="M90,-198.25C90,-221.02 90,-257 90,-257 90,-257 453.31,-257 453.31,-257"/>
<polygon fill="black" stroke="black" points="453.31,-260.5 463.31,-257 453.31,-253.5 453.31,-260.5"/>
</g>
<!-- AppointmentsService -->
<g id="node10" class="node">
<title>AppointmentsService</title>
<ellipse fill="#fdb462" stroke="black" cx="1150" cy="-248" rx="94.92" ry="18"/>
<text text-anchor="middle" x="1150" y="-243.8" font-family="Times,serif" font-size="14.00">AppointmentsService</text>
</g>
<!-- AppointmentsService&#45;&gt;AppointmentsModule -->
<g id="edge9" class="edge">
<title>AppointmentsService&#45;&gt;AppointmentsModule</title>
<path fill="none" stroke="black" d="M1150,-229.92C1150,-228.15 1150,-227 1150,-227 1150,-227 346,-227 346,-227 346,-227 346,-208.04 346,-208.04"/>
<polygon fill="black" stroke="black" points="349.5,-208.04 346,-198.04 342.5,-208.04 349.5,-208.04"/>
</g>
<!-- ArticlesClientsService -->
<g id="node12" class="node">
<title>ArticlesClientsService</title>
<ellipse fill="#fdb462" stroke="black" cx="1547" cy="-248" rx="97.84" ry="18"/>
<text text-anchor="middle" x="1547" y="-243.8" font-family="Times,serif" font-size="14.00">ArticlesClientsService</text>
</g>
<!-- ArticlesClientsService&#45;&gt;ArticlesClientsModule -->
<g id="edge11" class="edge">
<title>ArticlesClientsService&#45;&gt;ArticlesClientsModule</title>
<path fill="none" stroke="black" d="M1547,-229.79C1547,-224.45 1547,-220 1547,-220 1547,-220 566.79,-220 566.79,-220 566.79,-220 566.79,-208.13 566.79,-208.13"/>
<polygon fill="black" stroke="black" points="570.29,-208.13 566.79,-198.13 563.29,-208.13 570.29,-208.13"/>
</g>
<!-- ArticlesService -->
<g id="node14" class="node">
<title>ArticlesService</title>
<ellipse fill="#fdb462" stroke="black" cx="1926" cy="-248" rx="70.62" ry="18"/>
<text text-anchor="middle" x="1926" y="-243.8" font-family="Times,serif" font-size="14.00">ArticlesService</text>
</g>
<!-- ArticlesService&#45;&gt;ArticlesModule -->
<g id="edge13" class="edge">
<title>ArticlesService&#45;&gt;ArticlesModule</title>
<path fill="none" stroke="black" d="M1926,-229.68C1926,-221.21 1926,-213 1926,-213 1926,-213 647,-213 647,-213 647,-213 647,-208.04 647,-208.04"/>
<polygon fill="black" stroke="black" points="650.5,-208.04 647,-198.04 643.5,-208.04 650.5,-208.04"/>
</g>
<!-- AuthService -->
<g id="node16" class="node">
<title>AuthService</title>
<ellipse fill="#fdb462" stroke="black" cx="215" cy="-104" rx="59.11" ry="18"/>
<text text-anchor="middle" x="215" y="-99.8" font-family="Times,serif" font-size="14.00">AuthService</text>
</g>
<!-- AuthService&#45;&gt;AuthModule -->
<g id="edge15" class="edge">
<title>AuthService&#45;&gt;AuthModule</title>
<path fill="none" stroke="black" d="M200.41,-121.63C200.41,-121.63 200.41,-151.94 200.41,-151.94"/>
<polygon fill="black" stroke="black" points="196.91,-151.94 200.41,-161.94 203.91,-151.94 196.91,-151.94"/>
</g>
<!-- JwtStrategy -->
<g id="node17" class="node">
<title>JwtStrategy</title>
<ellipse fill="#fdb462" stroke="black" cx="81" cy="-104" rx="56.76" ry="18"/>
<text text-anchor="middle" x="81" y="-99.8" font-family="Times,serif" font-size="14.00">JwtStrategy</text>
</g>
<!-- JwtStrategy&#45;&gt;AuthModule -->
<g id="edge16" class="edge">
<title>JwtStrategy&#45;&gt;AuthModule</title>
<path fill="none" stroke="black" d="M137.63,-104C145.61,-104 151.16,-104 151.16,-104 151.16,-104 151.16,-180 151.16,-180 151.16,-180 161.36,-180 161.36,-180"/>
<polygon fill="black" stroke="black" points="161.36,-183.5 171.36,-180 161.36,-176.5 161.36,-183.5"/>
</g>
<!-- ClientsService -->
<g id="node19" class="node">
<title>ClientsService</title>
<ellipse fill="#fdb462" stroke="black" cx="2234" cy="-248" rx="67.21" ry="18"/>
<text text-anchor="middle" x="2234" y="-243.8" font-family="Times,serif" font-size="14.00">ClientsService</text>
</g>
<!-- ClientsService&#45;&gt;ClientsModule -->
<g id="edge18" class="edge">
<title>ClientsService&#45;&gt;ClientsModule</title>
<path fill="none" stroke="black" d="M2234,-229.94C2234,-218.56 2234,-206 2234,-206 2234,-206 767,-206 767,-206 767,-206 767,-205.21 767,-205.21"/>
<polygon fill="black" stroke="black" points="770.5,-208.06 767,-198.06 763.5,-208.06 770.5,-208.06"/>
</g>
<!-- HistoriqueConnexionService -->
<g id="node21" class="node">
<title>HistoriqueConnexionService</title>
<ellipse fill="#fdb462" stroke="black" cx="2590" cy="-248" rx="123.28" ry="18"/>
<text text-anchor="middle" x="2590" y="-243.8" font-family="Times,serif" font-size="14.00">HistoriqueConnexionService</text>
</g>
<!-- HistoriqueConnexionService&#45;&gt;HistoriqueConnexionModule -->
<g id="edge20" class="edge">
<title>HistoriqueConnexionService&#45;&gt;HistoriqueConnexionModule</title>
<path fill="none" stroke="black" d="M2590,-229.73C2590,-211.44 2590,-186 2590,-186 2590,-186 1025.11,-186 1025.11,-186"/>
<polygon fill="black" stroke="black" points="1025.11,-182.5 1015.11,-186 1025.11,-189.5 1025.11,-182.5"/>
</g>
</g>
</svg>
